<svg width="24" height="24" viewBox="0 0 24 24" fill="none" transform="scale(0.7)" xmlns="http://www.w3.org/2000/svg">
<path d="M16 7L14.8944 4.78885C14.3463 3.69253 13.2257 3 12 3C10.7743 3 9.65374 3.69253 9.10557 4.78885L8 7M4 7H20M6 7H18V15C18 16.8638 18 17.7957 17.6955 18.5307C17.2895 19.5108 16.5108 20.2895 15.5307 20.6955C14.7956 21 13.8638 21 12 21C10.1362 21 9.20435 21 8.46927 20.6955C7.48915 20.2895 6.71046 19.5108 6.30448 18.5307C6 17.7957 6 16.8638 6 15V7Z" stroke="currentColor" stroke-width="0.75" stroke-linecap="round" stroke-linejoin="round"/>
</svg>
